<svg
     xmlns="http://www.w3.org/2000/svg"
    version="1.1"
    viewBox="5 0 20 20" 
    width="32"    
    height="32"
        
    >
    <g transform="scale(0.0356)">
      <path
        fill="#0A3D65"
        opacity="1.000000"
        stroke="none"
        d=" M542.460205,527.595337   C524.075745,535.094604 505.505310,540.566772 486.252808,543.635193   C463.916443,547.195190 441.421448,547.681396 419.049194,545.049927   C385.090820,541.055664 353.131989,530.386353 323.780609,512.707520   C284.420715,489.000488 253.735870,456.870819 232.109314,416.251953   C211.907059,378.308167 203.072159,337.637024 204.200912,294.855103   C205.374130,250.387756 218.348984,209.323807 242.209518,171.848526   C263.802429,137.934738 292.285767,110.923195 327.115112,90.943214   C355.732758,74.526596 386.576538,64.497696 419.497345,60.681530   C447.397980,57.447300 475.044067,58.725128 502.281525,64.940552   C532.549072,71.847412 560.638489,84.216866 586.193420,102.058342   C614.757629,122.000832 638.065796,146.838516 656.281372,176.554703   C672.413391,202.871811 682.907593,231.221069 688.074646,261.610291   C692.403259,287.068848 692.815186,312.596619 689.156128,338.134186   C686.257690,358.363403 680.841431,377.945099 672.900574,396.813507   C660.129639,427.158661 641.905457,453.825989 618.427612,476.820099   C596.412231,498.381927 571.249634,515.393738 542.460205,527.595337  M402.500031,161.819489   C380.067261,161.819489 357.634460,161.819489 335.156433,161.819489   C335.156433,236.740845 335.156433,311.129791 335.156433,385.447815   C346.157288,385.447815 356.888672,385.447815 368.232117,385.447815   C368.232117,350.895081 368.232117,316.685883 368.232117,282.739777   C392.955505,282.739777 417.056885,282.739777 441.592834,282.739777   C441.592834,346.943146 441.592834,410.665894 441.592834,474.446930   C452.795410,474.446930 463.556244,474.446930 474.615204,474.446930   C474.674530,473.121307 474.768982,471.996399 474.768738,470.871490   C474.763000,443.041779 474.716644,415.211945 474.809937,387.382568   C474.815491,385.723663 476.137695,382.598175 476.486877,382.648651   C478.856445,382.991089 482.134033,383.289978 483.283051,384.906982   C501.803864,410.971222 520.137207,437.170380 538.316711,463.474670   C545.936951,474.500488 545.728638,474.644440 559.057312,474.644440   C567.913574,474.644440 576.769836,474.644440 586.138611,474.644440   C562.580200,442.351013 539.484070,410.691254 516.201538,378.776093   C517.495605,378.331207 517.943176,378.152710 518.404358,378.022339   C533.143372,373.856079 545.979858,366.895233 554.934387,353.887634   C566.635132,336.890839 568.778259,318.242249 564.147583,298.696930   C561.349487,286.886200 555.586426,276.538727 546.109680,268.427277   C532.753357,256.995209 516.838013,252.154297 499.864227,251.484665   C479.101807,250.665604 458.284760,251.214615 437.491333,251.202362   C415.493927,251.189392 393.496552,251.216949 371.499146,251.204697   C370.394043,251.204071 369.289032,250.993546 368.360199,250.898758   C368.360199,231.375565 368.360199,212.198257 368.360199,192.824829   C394.576080,192.824829 420.178101,192.824829 445.839508,192.824829   C445.839508,182.391510 445.839508,172.189316 445.839508,161.819473   C431.475677,161.819473 417.487854,161.819473 402.500031,161.819489  z"
      />

      <path
        fill="#0B3F66"
        opacity="1.000000"
        stroke="none"
        d=" M531.197632,300.135193   C537.058594,314.624817 535.502625,332.794617 523.854126,342.724579   C514.732300,350.500641 503.614777,352.933899 492.040009,353.719696   C487.233887,354.045990 482.388062,353.776001 477.579163,354.077820   C473.752350,354.317993 474.717102,351.705933 474.712402,349.746338   C474.666260,330.437286 474.671753,311.128143 474.663239,291.819000   C474.661774,288.509552 474.663025,285.200104 474.663025,281.101929   C492.996826,281.361969 511.542847,279.115753 526.309998,293.422424   C528.180359,295.234497 529.456360,297.660004 531.197632,300.135193  z"
      />
      </g>
    </svg>